<svg xmlns="http://www.w3.org/2000/svg" width="760" height="1086" viewBox="0 0 760 1086" role="img" aria-label="stacked folder illustration">
  <defs>
    <filter id="shadow" x="-20%" y="-20%" width="140%" height="160%">
      <feDropShadow dx="0" dy="10" stdDeviation="8" flood-color="#948f88" flood-opacity="0.28" />
    </filter>
    <linearGradient id="paper" x1="0" y1="0" x2="1" y2="1">
      <stop offset="0" stop-color="#b8af9f" />
      <stop offset="1" stop-color="#a79d8c" />
    </linearGradient>
  </defs>

  <g filter="url(#shadow)">
    <path d="M0 0 H220 C234 0 250 -16 250 -34 H402 C402 -16 418 0 434 0 H760 V110 H0 Z" fill="url(#paper)" />

    <path d="M0 110 H390 C405 110 423 90 423 66 H522 C522 90 540 110 556 110 H760 V208 H0 Z" fill="#f1dfcf" />

    <path d="M0 208 H505 C523 208 542 188 542 164 H670 C670 188 690 208 708 208 H760 V304 H0 Z" fill="#d9834f" />

    <path d="M0 304 H290 C306 304 324 284 324 260 H424 C424 284 442 304 458 304 H760 V404 H0 Z" fill="#efb9a1" />

    <path d="M0 404 H514 C533 404 554 382 554 358 H640 C640 382 661 404 680 404 H760 V496 H0 Z" fill="#b7d7e8" />

    <rect x="0" y="496" width="760" height="590" fill="#c4d7c8" />

    <path d="M560 404 H720 C740 404 760 420 760 440 V490 C760 510 740 526 720 526 H560 Z" fill="#048a2d" />
  </g>
</svg>
